<mxfile host="app.diagrams.net" modified="2023-05-30T06:39:45.576Z" agent="Mozilla/5.0 (Windows NT 10.0; Win64; x64) AppleWebKit/537.36 (KHTML, like Gecko) Chrome/113.0.0.0 Safari/537.36 Edg/113.0.1774.57" etag="2NIlwqGmHt3JkfLTV58F" version="21.3.5" type="device">
  <diagram name="PÃ¡gina-1" id="SdfLxSpB5VajKidvtNAa">
    <mxGraphModel dx="2800" dy="830" grid="1" gridSize="10" guides="1" tooltips="1" connect="1" arrows="1" fold="1" page="1" pageScale="1" pageWidth="1300" pageHeight="2000" math="0" shadow="0">
      <root>
        <mxCell id="0" />
        <mxCell id="1" parent="0" />
        <mxCell id="-3C66Id-8g3njtLb4C6S-1" value="Estacion" style="rounded=1;whiteSpace=wrap;html=1;" parent="1" vertex="1">
          <mxGeometry x="90" y="390" width="100" height="60" as="geometry" />
        </mxCell>
        <mxCell id="-3C66Id-8g3njtLb4C6S-7" value="Trabajador" style="rounded=1;whiteSpace=wrap;html=1;" parent="1" vertex="1">
          <mxGeometry x="510" y="390" width="120" height="60" as="geometry" />
        </mxCell>
        <mxCell id="-3C66Id-8g3njtLb4C6S-11" value="&lt;font style=&quot;font-size: 10px;&quot;&gt;Es&amp;nbsp;&lt;br&gt;Jefe&lt;br&gt;&lt;/font&gt;" style="rhombus;whiteSpace=wrap;html=1;" parent="1" vertex="1">
          <mxGeometry x="640" y="310" width="80" height="80" as="geometry" />
        </mxCell>
        <mxCell id="-3C66Id-8g3njtLb4C6S-12" value="" style="triangle;whiteSpace=wrap;html=1;rotation=-90;" parent="1" vertex="1">
          <mxGeometry x="540" y="340" width="40" height="60" as="geometry" />
        </mxCell>
        <mxCell id="-3C66Id-8g3njtLb4C6S-16" value="" style="endArrow=none;html=1;rounded=0;exitX=1;exitY=0.5;exitDx=0;exitDy=0;" parent="1" source="-3C66Id-8g3njtLb4C6S-12" edge="1">
          <mxGeometry width="50" height="50" relative="1" as="geometry">
            <mxPoint x="390" y="340" as="sourcePoint" />
            <mxPoint x="560" y="200" as="targetPoint" />
          </mxGeometry>
        </mxCell>
        <mxCell id="-3C66Id-8g3njtLb4C6S-17" value="" style="verticalLabelPosition=bottom;verticalAlign=top;html=1;shape=mxgraph.basic.arc;startAngle=0.8662212177054287;endAngle=0.1303387665525873;" parent="1" vertex="1">
          <mxGeometry x="525" y="290" width="70" height="100" as="geometry" />
        </mxCell>
        <mxCell id="-3C66Id-8g3njtLb4C6S-18" value="Administracion" style="rounded=1;whiteSpace=wrap;html=1;" parent="1" vertex="1">
          <mxGeometry x="294" y="80" width="86" height="30" as="geometry" />
        </mxCell>
        <mxCell id="-3C66Id-8g3njtLb4C6S-19" value="Interino" style="rounded=1;whiteSpace=wrap;html=1;" parent="1" vertex="1">
          <mxGeometry x="160" y="80" width="86" height="30" as="geometry" />
        </mxCell>
        <mxCell id="-3C66Id-8g3njtLb4C6S-20" value="Electricidad" style="rounded=1;whiteSpace=wrap;html=1;" parent="1" vertex="1">
          <mxGeometry x="424" y="80" width="86" height="30" as="geometry" />
        </mxCell>
        <mxCell id="-3C66Id-8g3njtLb4C6S-21" value="Motor" style="rounded=1;whiteSpace=wrap;html=1;" parent="1" vertex="1">
          <mxGeometry x="544" y="80" width="86" height="30" as="geometry" />
        </mxCell>
        <mxCell id="-3C66Id-8g3njtLb4C6S-22" value="Mecanico" style="rounded=1;whiteSpace=wrap;html=1;" parent="1" vertex="1">
          <mxGeometry x="680" y="80" width="86" height="30" as="geometry" />
        </mxCell>
        <mxCell id="-3C66Id-8g3njtLb4C6S-24" value="" style="endArrow=none;html=1;rounded=0;" parent="1" edge="1">
          <mxGeometry width="50" height="50" relative="1" as="geometry">
            <mxPoint x="200" y="200" as="sourcePoint" />
            <mxPoint x="720" y="200" as="targetPoint" />
          </mxGeometry>
        </mxCell>
        <mxCell id="-3C66Id-8g3njtLb4C6S-25" value="" style="endArrow=none;html=1;rounded=0;entryX=0.467;entryY=1.004;entryDx=0;entryDy=0;entryPerimeter=0;" parent="1" target="-3C66Id-8g3njtLb4C6S-19" edge="1">
          <mxGeometry width="50" height="50" relative="1" as="geometry">
            <mxPoint x="200" y="200" as="sourcePoint" />
            <mxPoint x="180" y="140" as="targetPoint" />
          </mxGeometry>
        </mxCell>
        <mxCell id="-3C66Id-8g3njtLb4C6S-26" value="" style="endArrow=none;html=1;rounded=0;" parent="1" edge="1">
          <mxGeometry width="50" height="50" relative="1" as="geometry">
            <mxPoint x="330" y="200" as="sourcePoint" />
            <mxPoint x="330" y="110" as="targetPoint" />
          </mxGeometry>
        </mxCell>
        <mxCell id="-3C66Id-8g3njtLb4C6S-27" value="" style="endArrow=none;html=1;rounded=0;entryX=0.5;entryY=1;entryDx=0;entryDy=0;" parent="1" target="-3C66Id-8g3njtLb4C6S-20" edge="1">
          <mxGeometry width="50" height="50" relative="1" as="geometry">
            <mxPoint x="467" y="200" as="sourcePoint" />
            <mxPoint x="510" y="120" as="targetPoint" />
          </mxGeometry>
        </mxCell>
        <mxCell id="-3C66Id-8g3njtLb4C6S-29" value="" style="endArrow=none;html=1;rounded=0;entryX=0.459;entryY=1.035;entryDx=0;entryDy=0;entryPerimeter=0;" parent="1" target="-3C66Id-8g3njtLb4C6S-22" edge="1">
          <mxGeometry width="50" height="50" relative="1" as="geometry">
            <mxPoint x="719" y="200" as="sourcePoint" />
            <mxPoint x="660" y="60" as="targetPoint" />
          </mxGeometry>
        </mxCell>
        <mxCell id="-3C66Id-8g3njtLb4C6S-30" value="" style="endArrow=none;html=1;rounded=0;entryX=0.428;entryY=1.026;entryDx=0;entryDy=0;entryPerimeter=0;" parent="1" target="-3C66Id-8g3njtLb4C6S-21" edge="1">
          <mxGeometry width="50" height="50" relative="1" as="geometry">
            <mxPoint x="580" y="200" as="sourcePoint" />
            <mxPoint x="720" y="110" as="targetPoint" />
          </mxGeometry>
        </mxCell>
        <mxCell id="-3C66Id-8g3njtLb4C6S-33" value="Trabaja" style="shape=rhombus;perimeter=rhombusPerimeter;whiteSpace=wrap;html=1;align=center;" parent="1" vertex="1">
          <mxGeometry x="293.5" y="390" width="120" height="60" as="geometry" />
        </mxCell>
        <mxCell id="F1NleT-dJt74H9rhN13T-1" value="" style="endArrow=none;html=1;rounded=0;exitX=1;exitY=0.5;exitDx=0;exitDy=0;entryX=0;entryY=0.5;entryDx=0;entryDy=0;" parent="1" source="-3C66Id-8g3njtLb4C6S-33" target="-3C66Id-8g3njtLb4C6S-7" edge="1">
          <mxGeometry relative="1" as="geometry">
            <mxPoint x="350" y="369.5" as="sourcePoint" />
            <mxPoint x="510" y="369.5" as="targetPoint" />
          </mxGeometry>
        </mxCell>
        <mxCell id="F1NleT-dJt74H9rhN13T-2" value="1,n" style="resizable=0;html=1;whiteSpace=wrap;align=right;verticalAlign=bottom;" parent="F1NleT-dJt74H9rhN13T-1" connectable="0" vertex="1">
          <mxGeometry x="1" relative="1" as="geometry">
            <mxPoint x="-10" as="offset" />
          </mxGeometry>
        </mxCell>
        <mxCell id="F1NleT-dJt74H9rhN13T-3" value="" style="endArrow=none;html=1;rounded=0;entryX=1;entryY=0.5;entryDx=0;entryDy=0;exitX=0;exitY=0.5;exitDx=0;exitDy=0;" parent="1" source="-3C66Id-8g3njtLb4C6S-33" target="-3C66Id-8g3njtLb4C6S-1" edge="1">
          <mxGeometry relative="1" as="geometry">
            <mxPoint x="290" y="420" as="sourcePoint" />
            <mxPoint x="200" y="420" as="targetPoint" />
            <Array as="points" />
          </mxGeometry>
        </mxCell>
        <mxCell id="F1NleT-dJt74H9rhN13T-4" value="1,1" style="resizable=0;html=1;whiteSpace=wrap;align=right;verticalAlign=bottom;" parent="F1NleT-dJt74H9rhN13T-3" connectable="0" vertex="1">
          <mxGeometry x="1" relative="1" as="geometry">
            <mxPoint x="20" as="offset" />
          </mxGeometry>
        </mxCell>
        <mxCell id="F1NleT-dJt74H9rhN13T-6" value="" style="endArrow=none;html=1;rounded=0;" parent="1" edge="1">
          <mxGeometry relative="1" as="geometry">
            <mxPoint x="630" y="405" as="sourcePoint" />
            <mxPoint x="680" y="390" as="targetPoint" />
            <Array as="points">
              <mxPoint x="650" y="405" />
              <mxPoint x="680" y="405" />
            </Array>
          </mxGeometry>
        </mxCell>
        <mxCell id="F1NleT-dJt74H9rhN13T-7" value="1,n" style="resizable=0;html=1;whiteSpace=wrap;align=right;verticalAlign=bottom;" parent="F1NleT-dJt74H9rhN13T-6" connectable="0" vertex="1">
          <mxGeometry x="1" relative="1" as="geometry">
            <mxPoint x="-9" y="11" as="offset" />
          </mxGeometry>
        </mxCell>
        <mxCell id="F1NleT-dJt74H9rhN13T-11" value="" style="endArrow=none;html=1;rounded=0;entryX=0;entryY=0.5;entryDx=0;entryDy=0;" parent="1" edge="1">
          <mxGeometry relative="1" as="geometry">
            <mxPoint x="610" y="389" as="sourcePoint" />
            <mxPoint x="640" y="349" as="targetPoint" />
            <Array as="points">
              <mxPoint x="610" y="349" />
            </Array>
          </mxGeometry>
        </mxCell>
        <mxCell id="F1NleT-dJt74H9rhN13T-12" value="0,1" style="resizable=0;html=1;whiteSpace=wrap;align=right;verticalAlign=bottom;" parent="F1NleT-dJt74H9rhN13T-11" connectable="0" vertex="1">
          <mxGeometry x="1" relative="1" as="geometry" />
        </mxCell>
        <mxCell id="F1NleT-dJt74H9rhN13T-13" value="Atiende" style="shape=rhombus;perimeter=rhombusPerimeter;whiteSpace=wrap;html=1;align=center;" parent="1" vertex="1">
          <mxGeometry x="485" y="610" width="120" height="60" as="geometry" />
        </mxCell>
        <mxCell id="F1NleT-dJt74H9rhN13T-16" value="Informe / Cita" style="rounded=1;arcSize=10;whiteSpace=wrap;html=1;align=center;" parent="1" vertex="1">
          <mxGeometry x="495" y="869.9999999999999" width="100" height="40" as="geometry" />
        </mxCell>
        <mxCell id="F1NleT-dJt74H9rhN13T-17" value="" style="endArrow=none;html=1;rounded=0;exitX=0.5;exitY=1;exitDx=0;exitDy=0;entryX=0.5;entryY=0;entryDx=0;entryDy=0;" parent="1" source="F1NleT-dJt74H9rhN13T-13" target="F1NleT-dJt74H9rhN13T-16" edge="1">
          <mxGeometry relative="1" as="geometry">
            <mxPoint x="530" y="730" as="sourcePoint" />
            <mxPoint x="560" y="790" as="targetPoint" />
          </mxGeometry>
        </mxCell>
        <mxCell id="F1NleT-dJt74H9rhN13T-18" value="n,0" style="resizable=0;html=1;whiteSpace=wrap;align=right;verticalAlign=bottom;" parent="F1NleT-dJt74H9rhN13T-17" connectable="0" vertex="1">
          <mxGeometry x="1" relative="1" as="geometry">
            <mxPoint x="25" y="-20" as="offset" />
          </mxGeometry>
        </mxCell>
        <mxCell id="F1NleT-dJt74H9rhN13T-29" value="Pertenece" style="shape=rhombus;perimeter=rhombusPerimeter;whiteSpace=wrap;html=1;align=center;" parent="1" vertex="1">
          <mxGeometry x="485" y="1190.59" width="120" height="60" as="geometry" />
        </mxCell>
        <mxCell id="F1NleT-dJt74H9rhN13T-30" value="Vehiculo" style="rounded=1;arcSize=10;whiteSpace=wrap;html=1;align=center;" parent="1" vertex="1">
          <mxGeometry x="520" y="1350.59" width="110" height="100" as="geometry" />
        </mxCell>
        <mxCell id="F1NleT-dJt74H9rhN13T-33" value="" style="endArrow=none;html=1;rounded=0;entryX=0.5;entryY=1;entryDx=0;entryDy=0;exitX=0.5;exitY=0;exitDx=0;exitDy=0;" parent="1" source="F1NleT-dJt74H9rhN13T-29" target="F1NleT-dJt74H9rhN13T-16" edge="1">
          <mxGeometry relative="1" as="geometry">
            <mxPoint x="430" y="1160.59" as="sourcePoint" />
            <mxPoint x="590" y="1160.59" as="targetPoint" />
          </mxGeometry>
        </mxCell>
        <mxCell id="F1NleT-dJt74H9rhN13T-34" value="1,n" style="resizable=0;html=1;whiteSpace=wrap;align=right;verticalAlign=bottom;" parent="F1NleT-dJt74H9rhN13T-33" connectable="0" vertex="1">
          <mxGeometry x="1" relative="1" as="geometry">
            <mxPoint x="30" y="30" as="offset" />
          </mxGeometry>
        </mxCell>
        <mxCell id="F1NleT-dJt74H9rhN13T-40" value="Pertenece" style="shape=rhombus;perimeter=rhombusPerimeter;whiteSpace=wrap;html=1;align=center;" parent="1" vertex="1">
          <mxGeometry x="310" y="1348" width="116" height="60" as="geometry" />
        </mxCell>
        <mxCell id="F1NleT-dJt74H9rhN13T-41" value="" style="endArrow=none;html=1;rounded=0;entryX=-0.044;entryY=0.289;entryDx=0;entryDy=0;exitX=1;exitY=0.5;exitDx=0;exitDy=0;entryPerimeter=0;" parent="1" source="F1NleT-dJt74H9rhN13T-40" target="F1NleT-dJt74H9rhN13T-30" edge="1">
          <mxGeometry relative="1" as="geometry">
            <mxPoint x="426.5" y="1380" as="sourcePoint" />
            <mxPoint x="513" y="1380" as="targetPoint" />
          </mxGeometry>
        </mxCell>
        <mxCell id="F1NleT-dJt74H9rhN13T-42" value="N" style="resizable=0;html=1;whiteSpace=wrap;align=right;verticalAlign=bottom;" parent="F1NleT-dJt74H9rhN13T-41" connectable="0" vertex="1">
          <mxGeometry x="1" relative="1" as="geometry">
            <mxPoint x="-15" as="offset" />
          </mxGeometry>
        </mxCell>
        <mxCell id="F1NleT-dJt74H9rhN13T-43" value="Propietario" style="rounded=1;arcSize=10;whiteSpace=wrap;html=1;align=center;" parent="1" vertex="1">
          <mxGeometry x="113" y="1360" width="100" height="40" as="geometry" />
        </mxCell>
        <mxCell id="F1NleT-dJt74H9rhN13T-44" value="" style="endArrow=none;html=1;rounded=0;exitX=1;exitY=0.5;exitDx=0;exitDy=0;entryX=0;entryY=0.5;entryDx=0;entryDy=0;" parent="1" source="F1NleT-dJt74H9rhN13T-43" target="F1NleT-dJt74H9rhN13T-40" edge="1">
          <mxGeometry relative="1" as="geometry">
            <mxPoint x="243" y="1410" as="sourcePoint" />
            <mxPoint x="310.5" y="1380" as="targetPoint" />
          </mxGeometry>
        </mxCell>
        <mxCell id="F1NleT-dJt74H9rhN13T-45" value="1" style="resizable=0;html=1;whiteSpace=wrap;align=right;verticalAlign=bottom;" parent="F1NleT-dJt74H9rhN13T-44" connectable="0" vertex="1">
          <mxGeometry x="1" relative="1" as="geometry">
            <mxPoint x="-66" as="offset" />
          </mxGeometry>
        </mxCell>
        <mxCell id="F1NleT-dJt74H9rhN13T-47" value="" style="triangle;whiteSpace=wrap;html=1;rotation=0;" parent="1" vertex="1">
          <mxGeometry x="630" y="1380.59" width="25" height="40" as="geometry" />
        </mxCell>
        <mxCell id="F1NleT-dJt74H9rhN13T-48" value="" style="triangle;whiteSpace=wrap;html=1;rotation=90;" parent="1" vertex="1">
          <mxGeometry x="589.53" y="1448.09" width="28.95" height="35.82" as="geometry" />
        </mxCell>
        <mxCell id="F1NleT-dJt74H9rhN13T-51" value="" style="endArrow=none;html=1;rounded=0;exitDx=0;exitDy=0;" parent="1" source="pK8p_V3v8rioprw5xGJu-29" edge="1">
          <mxGeometry width="50" height="50" relative="1" as="geometry">
            <mxPoint x="705" y="1440.59" as="sourcePoint" />
            <mxPoint x="760" y="1400.59" as="targetPoint" />
          </mxGeometry>
        </mxCell>
        <mxCell id="F1NleT-dJt74H9rhN13T-52" value="" style="verticalLabelPosition=bottom;verticalAlign=top;html=1;shape=mxgraph.basic.arc;startAngle=0.8662212177054287;endAngle=0.1303387665525873;rotation=90;" parent="1" vertex="1">
          <mxGeometry x="610" y="1350.59" width="70" height="100" as="geometry" />
        </mxCell>
        <mxCell id="F1NleT-dJt74H9rhN13T-53" value="" style="endArrow=none;html=1;rounded=0;" parent="1" source="pK8p_V3v8rioprw5xGJu-27" edge="1">
          <mxGeometry width="50" height="50" relative="1" as="geometry">
            <mxPoint x="604" y="1630.59" as="sourcePoint" />
            <mxPoint x="604" y="1480.59" as="targetPoint" />
          </mxGeometry>
        </mxCell>
        <mxCell id="F1NleT-dJt74H9rhN13T-56" value="Furgoneta" style="rounded=1;whiteSpace=wrap;html=1;" parent="1" vertex="1">
          <mxGeometry x="555" y="1710.59" width="86" height="30" as="geometry" />
        </mxCell>
        <mxCell id="F1NleT-dJt74H9rhN13T-58" value="Turismo" style="rounded=1;whiteSpace=wrap;html=1;" parent="1" vertex="1">
          <mxGeometry x="688" y="1710.59" width="86" height="30" as="geometry" />
        </mxCell>
        <mxCell id="F1NleT-dJt74H9rhN13T-59" value="Camion" style="rounded=1;whiteSpace=wrap;html=1;" parent="1" vertex="1">
          <mxGeometry x="823" y="1710.59" width="86" height="30" as="geometry" />
        </mxCell>
        <mxCell id="F1NleT-dJt74H9rhN13T-60" value="Motocicleta" style="rounded=1;whiteSpace=wrap;html=1;" parent="1" vertex="1">
          <mxGeometry x="954" y="1710.59" width="86" height="30" as="geometry" />
        </mxCell>
        <mxCell id="F1NleT-dJt74H9rhN13T-61" value="" style="endArrow=none;html=1;rounded=0;" parent="1" edge="1">
          <mxGeometry width="50" height="50" relative="1" as="geometry">
            <mxPoint x="604" y="1630.59" as="sourcePoint" />
            <mxPoint x="994" y="1630.59" as="targetPoint" />
            <Array as="points">
              <mxPoint x="844" y="1630.59" />
            </Array>
          </mxGeometry>
        </mxCell>
        <mxCell id="F1NleT-dJt74H9rhN13T-63" value="" style="endArrow=none;html=1;rounded=0;" parent="1" edge="1">
          <mxGeometry width="50" height="50" relative="1" as="geometry">
            <mxPoint x="604" y="1710.59" as="sourcePoint" />
            <mxPoint x="604" y="1630.59" as="targetPoint" />
          </mxGeometry>
        </mxCell>
        <mxCell id="F1NleT-dJt74H9rhN13T-64" value="" style="endArrow=none;html=1;rounded=0;" parent="1" edge="1">
          <mxGeometry width="50" height="50" relative="1" as="geometry">
            <mxPoint x="734" y="1710.59" as="sourcePoint" />
            <mxPoint x="734" y="1630.59" as="targetPoint" />
          </mxGeometry>
        </mxCell>
        <mxCell id="F1NleT-dJt74H9rhN13T-65" value="" style="endArrow=none;html=1;rounded=0;exitX=0.463;exitY=-0.006;exitDx=0;exitDy=0;exitPerimeter=0;" parent="1" source="F1NleT-dJt74H9rhN13T-60" edge="1">
          <mxGeometry width="50" height="50" relative="1" as="geometry">
            <mxPoint x="996.96" y="1710.59" as="sourcePoint" />
            <mxPoint x="994" y="1630.59" as="targetPoint" />
          </mxGeometry>
        </mxCell>
        <mxCell id="F1NleT-dJt74H9rhN13T-66" value="" style="endArrow=none;html=1;rounded=0;" parent="1" edge="1">
          <mxGeometry width="50" height="50" relative="1" as="geometry">
            <mxPoint x="871.26" y="1710.59" as="sourcePoint" />
            <mxPoint x="871.26" y="1630.59" as="targetPoint" />
          </mxGeometry>
        </mxCell>
        <mxCell id="F1NleT-dJt74H9rhN13T-67" value="Electrico" style="rounded=1;whiteSpace=wrap;html=1;direction=east;" parent="1" vertex="1">
          <mxGeometry x="862" y="1129.72" width="86" height="30" as="geometry" />
        </mxCell>
        <mxCell id="F1NleT-dJt74H9rhN13T-68" value="Hibrido" style="rounded=1;whiteSpace=wrap;html=1;direction=east;" parent="1" vertex="1">
          <mxGeometry x="862" y="1229.72" width="86" height="30" as="geometry" />
        </mxCell>
        <mxCell id="F1NleT-dJt74H9rhN13T-69" value="Diesel" style="rounded=1;whiteSpace=wrap;html=1;direction=east;" parent="1" vertex="1">
          <mxGeometry x="855" y="1310.59" width="86" height="30" as="geometry" />
        </mxCell>
        <mxCell id="F1NleT-dJt74H9rhN13T-70" value="Gasolina" style="rounded=1;whiteSpace=wrap;html=1;direction=east;" parent="1" vertex="1">
          <mxGeometry x="855" y="1390.59" width="86" height="30" as="geometry" />
        </mxCell>
        <mxCell id="F1NleT-dJt74H9rhN13T-71" value="" style="endArrow=none;html=1;rounded=0;" parent="1" edge="1">
          <mxGeometry width="50" height="50" relative="1" as="geometry">
            <mxPoint x="762" y="1400.59" as="sourcePoint" />
            <mxPoint x="762" y="1140.59" as="targetPoint" />
          </mxGeometry>
        </mxCell>
        <mxCell id="F1NleT-dJt74H9rhN13T-72" value="" style="endArrow=none;html=1;rounded=0;" parent="1" edge="1">
          <mxGeometry width="50" height="50" relative="1" as="geometry">
            <mxPoint x="862" y="1139.72" as="sourcePoint" />
            <mxPoint x="761" y="1140.59" as="targetPoint" />
          </mxGeometry>
        </mxCell>
        <mxCell id="F1NleT-dJt74H9rhN13T-73" value="" style="endArrow=none;html=1;rounded=0;" parent="1" edge="1">
          <mxGeometry width="50" height="50" relative="1" as="geometry">
            <mxPoint x="761" y="1240.59" as="sourcePoint" />
            <mxPoint x="862" y="1239.72" as="targetPoint" />
          </mxGeometry>
        </mxCell>
        <mxCell id="F1NleT-dJt74H9rhN13T-74" value="" style="endArrow=none;html=1;rounded=0;exitX=-0.004;exitY=0.329;exitDx=0;exitDy=0;exitPerimeter=0;" parent="1" source="F1NleT-dJt74H9rhN13T-70" edge="1">
          <mxGeometry width="50" height="50" relative="1" as="geometry">
            <mxPoint x="835" y="1400.59" as="sourcePoint" />
            <mxPoint x="761" y="1400.59" as="targetPoint" />
          </mxGeometry>
        </mxCell>
        <mxCell id="F1NleT-dJt74H9rhN13T-75" value="" style="endArrow=none;html=1;rounded=0;" parent="1" edge="1">
          <mxGeometry width="50" height="50" relative="1" as="geometry">
            <mxPoint x="855" y="1320.59" as="sourcePoint" />
            <mxPoint x="761" y="1320.59" as="targetPoint" />
          </mxGeometry>
        </mxCell>
        <mxCell id="F1NleT-dJt74H9rhN13T-76" value="1:N" style="text;html=1;align=center;verticalAlign=middle;resizable=0;points=[];autosize=1;strokeColor=none;fillColor=none;" parent="1" vertex="1">
          <mxGeometry x="348" y="1318" width="40" height="30" as="geometry" />
        </mxCell>
        <mxCell id="F1NleT-dJt74H9rhN13T-77" value="" style="endArrow=none;html=1;rounded=0;exitX=0.5;exitY=1;exitDx=0;exitDy=0;entryX=0.25;entryY=0;entryDx=0;entryDy=0;" parent="1" source="F1NleT-dJt74H9rhN13T-29" target="F1NleT-dJt74H9rhN13T-30" edge="1">
          <mxGeometry relative="1" as="geometry">
            <mxPoint x="460" y="1250.59" as="sourcePoint" />
            <mxPoint x="560" y="1320.59" as="targetPoint" />
          </mxGeometry>
        </mxCell>
        <mxCell id="F1NleT-dJt74H9rhN13T-78" value="1,1" style="resizable=0;html=1;whiteSpace=wrap;align=right;verticalAlign=bottom;" parent="F1NleT-dJt74H9rhN13T-77" connectable="0" vertex="1">
          <mxGeometry x="1" relative="1" as="geometry" />
        </mxCell>
        <mxCell id="F1NleT-dJt74H9rhN13T-79" value="1:N" style="text;html=1;align=center;verticalAlign=middle;resizable=0;points=[];autosize=1;strokeColor=none;fillColor=none;" parent="1" vertex="1">
          <mxGeometry x="445" y="1205.59" width="40" height="30" as="geometry" />
        </mxCell>
        <mxCell id="F1NleT-dJt74H9rhN13T-80" value="1:N" style="text;html=1;align=center;verticalAlign=middle;resizable=0;points=[];autosize=1;strokeColor=none;fillColor=none;" parent="1" vertex="1">
          <mxGeometry x="447" y="625" width="40" height="30" as="geometry" />
        </mxCell>
        <mxCell id="F1NleT-dJt74H9rhN13T-82" value="1:N" style="text;html=1;align=center;verticalAlign=middle;resizable=0;points=[];autosize=1;strokeColor=none;fillColor=none;" parent="1" vertex="1">
          <mxGeometry x="333.5" y="355" width="40" height="30" as="geometry" />
        </mxCell>
        <mxCell id="F1NleT-dJt74H9rhN13T-83" value="1:N" style="text;html=1;align=center;verticalAlign=middle;resizable=0;points=[];autosize=1;strokeColor=none;fillColor=none;" parent="1" vertex="1">
          <mxGeometry x="721" y="335" width="40" height="30" as="geometry" />
        </mxCell>
        <mxCell id="sIJBtcpxU6xOeqoZIXLy-3" value="" style="endArrow=none;html=1;rounded=0;entryX=0.662;entryY=0.92;entryDx=0;entryDy=0;entryPerimeter=0;" parent="1" target="sIJBtcpxU6xOeqoZIXLy-32" edge="1">
          <mxGeometry width="50" height="50" relative="1" as="geometry">
            <mxPoint x="100" y="390" as="sourcePoint" />
            <mxPoint x="100" y="350" as="targetPoint" />
          </mxGeometry>
        </mxCell>
        <mxCell id="sIJBtcpxU6xOeqoZIXLy-4" value="" style="endArrow=none;html=1;rounded=0;exitX=0.353;exitY=0.08;exitDx=0;exitDy=0;exitPerimeter=0;" parent="1" source="sIJBtcpxU6xOeqoZIXLy-27" edge="1">
          <mxGeometry width="50" height="50" relative="1" as="geometry">
            <mxPoint x="670" y="550" as="sourcePoint" />
            <mxPoint x="582" y="450" as="targetPoint" />
          </mxGeometry>
        </mxCell>
        <mxCell id="sIJBtcpxU6xOeqoZIXLy-6" value="" style="endArrow=none;html=1;rounded=0;exitX=0.234;exitY=0.082;exitDx=0;exitDy=0;exitPerimeter=0;" parent="1" source="sIJBtcpxU6xOeqoZIXLy-24" edge="1">
          <mxGeometry width="50" height="50" relative="1" as="geometry">
            <mxPoint x="730" y="510" as="sourcePoint" />
            <mxPoint x="610" y="450" as="targetPoint" />
          </mxGeometry>
        </mxCell>
        <mxCell id="sIJBtcpxU6xOeqoZIXLy-7" value="" style="endArrow=none;html=1;rounded=0;exitX=0;exitY=0.5;exitDx=0;exitDy=0;" parent="1" source="sIJBtcpxU6xOeqoZIXLy-21" edge="1">
          <mxGeometry width="50" height="50" relative="1" as="geometry">
            <mxPoint x="740" y="450" as="sourcePoint" />
            <mxPoint x="630" y="440" as="targetPoint" />
          </mxGeometry>
        </mxCell>
        <mxCell id="sIJBtcpxU6xOeqoZIXLy-8" value="" style="endArrow=none;html=1;rounded=0;exitX=0.366;exitY=0.02;exitDx=0;exitDy=0;exitPerimeter=0;" parent="1" source="sIJBtcpxU6xOeqoZIXLy-26" edge="1">
          <mxGeometry width="50" height="50" relative="1" as="geometry">
            <mxPoint x="724" y="577" as="sourcePoint" />
            <mxPoint x="597" y="450" as="targetPoint" />
          </mxGeometry>
        </mxCell>
        <mxCell id="sIJBtcpxU6xOeqoZIXLy-9" value="" style="endArrow=none;html=1;rounded=0;exitX=0;exitY=0;exitDx=0;exitDy=0;" parent="1" source="sIJBtcpxU6xOeqoZIXLy-25" edge="1">
          <mxGeometry width="50" height="50" relative="1" as="geometry">
            <mxPoint x="740" y="480" as="sourcePoint" />
            <mxPoint x="627" y="450" as="targetPoint" />
          </mxGeometry>
        </mxCell>
        <mxCell id="sIJBtcpxU6xOeqoZIXLy-10" value="" style="endArrow=none;html=1;rounded=1;entryX=1;entryY=0.5;entryDx=0;entryDy=0;" parent="1" source="sIJBtcpxU6xOeqoZIXLy-22" target="-3C66Id-8g3njtLb4C6S-7" edge="1">
          <mxGeometry width="50" height="50" relative="1" as="geometry">
            <mxPoint x="740" y="420" as="sourcePoint" />
            <mxPoint x="665" y="420" as="targetPoint" />
          </mxGeometry>
        </mxCell>
        <mxCell id="sIJBtcpxU6xOeqoZIXLy-21" value="Telefono" style="ellipse;whiteSpace=wrap;html=1;align=center;" parent="1" vertex="1">
          <mxGeometry x="1030" y="440" width="100" height="40" as="geometry" />
        </mxCell>
        <mxCell id="sIJBtcpxU6xOeqoZIXLy-22" value="Id_trabajador" style="ellipse;whiteSpace=wrap;html=1;align=center;fontStyle=4;" parent="1" vertex="1">
          <mxGeometry x="920" y="335" width="100" height="40" as="geometry" />
        </mxCell>
        <mxCell id="sIJBtcpxU6xOeqoZIXLy-24" value="ContraseÃ±a" style="ellipse;whiteSpace=wrap;html=1;align=center;" parent="1" vertex="1">
          <mxGeometry x="1040" y="560" width="100" height="40" as="geometry" />
        </mxCell>
        <mxCell id="sIJBtcpxU6xOeqoZIXLy-25" value="Usuario" style="ellipse;whiteSpace=wrap;html=1;align=center;" parent="1" vertex="1">
          <mxGeometry x="1060" y="500" width="100" height="40" as="geometry" />
        </mxCell>
        <mxCell id="sIJBtcpxU6xOeqoZIXLy-26" value="Fecha contratacion" style="ellipse;whiteSpace=wrap;html=1;align=center;" parent="1" vertex="1">
          <mxGeometry x="1030" y="630" width="100" height="40" as="geometry" />
        </mxCell>
        <mxCell id="sIJBtcpxU6xOeqoZIXLy-27" value="Email" style="ellipse;whiteSpace=wrap;html=1;align=center;" parent="1" vertex="1">
          <mxGeometry x="1020" y="690" width="100" height="40" as="geometry" />
        </mxCell>
        <mxCell id="sIJBtcpxU6xOeqoZIXLy-28" value="" style="endArrow=none;html=1;rounded=0;entryX=0.5;entryY=1;entryDx=0;entryDy=0;" parent="1" target="sIJBtcpxU6xOeqoZIXLy-31" edge="1">
          <mxGeometry width="50" height="50" relative="1" as="geometry">
            <mxPoint x="120" y="390" as="sourcePoint" />
            <mxPoint x="120" y="350" as="targetPoint" />
          </mxGeometry>
        </mxCell>
        <mxCell id="sIJBtcpxU6xOeqoZIXLy-29" value="" style="endArrow=none;html=1;rounded=0;entryX=0.458;entryY=0.955;entryDx=0;entryDy=0;entryPerimeter=0;" parent="1" target="sIJBtcpxU6xOeqoZIXLy-33" edge="1">
          <mxGeometry width="50" height="50" relative="1" as="geometry">
            <mxPoint x="150" y="390" as="sourcePoint" />
            <mxPoint x="150" y="350" as="targetPoint" />
          </mxGeometry>
        </mxCell>
        <mxCell id="sIJBtcpxU6xOeqoZIXLy-30" value="" style="endArrow=none;html=1;rounded=0;entryX=0.25;entryY=0.983;entryDx=0;entryDy=0;entryPerimeter=0;" parent="1" target="sIJBtcpxU6xOeqoZIXLy-36" edge="1">
          <mxGeometry width="50" height="50" relative="1" as="geometry">
            <mxPoint x="169.76" y="390" as="sourcePoint" />
            <mxPoint x="230" y="360" as="targetPoint" />
          </mxGeometry>
        </mxCell>
        <mxCell id="sIJBtcpxU6xOeqoZIXLy-31" value="Nombre" style="ellipse;whiteSpace=wrap;html=1;align=center;" parent="1" vertex="1">
          <mxGeometry x="10" y="270" width="100" height="40" as="geometry" />
        </mxCell>
        <mxCell id="sIJBtcpxU6xOeqoZIXLy-32" value="id_Estacion" style="ellipse;whiteSpace=wrap;html=1;align=center;fontStyle=4;" parent="1" vertex="1">
          <mxGeometry x="-70" y="325" width="100" height="40" as="geometry" />
        </mxCell>
        <mxCell id="sIJBtcpxU6xOeqoZIXLy-33" value="Direccion" style="ellipse;whiteSpace=wrap;html=1;align=center;" parent="1" vertex="1">
          <mxGeometry x="110" y="285" width="100" height="40" as="geometry" />
        </mxCell>
        <mxCell id="sIJBtcpxU6xOeqoZIXLy-34" value="Correo" style="ellipse;whiteSpace=wrap;html=1;align=center;" parent="1" vertex="1">
          <mxGeometry x="-80" y="400" width="100" height="40" as="geometry" />
        </mxCell>
        <mxCell id="sIJBtcpxU6xOeqoZIXLy-35" value="" style="endArrow=none;html=1;rounded=0;entryX=0.994;entryY=0.43;entryDx=0;entryDy=0;entryPerimeter=0;exitX=0.003;exitY=0.391;exitDx=0;exitDy=0;exitPerimeter=0;" parent="1" source="-3C66Id-8g3njtLb4C6S-1" target="sIJBtcpxU6xOeqoZIXLy-34" edge="1">
          <mxGeometry width="50" height="50" relative="1" as="geometry">
            <mxPoint x="179.76" y="400" as="sourcePoint" />
            <mxPoint x="240" y="370" as="targetPoint" />
          </mxGeometry>
        </mxCell>
        <mxCell id="sIJBtcpxU6xOeqoZIXLy-36" value="Telefono" style="ellipse;whiteSpace=wrap;html=1;align=center;" parent="1" vertex="1">
          <mxGeometry x="210" y="325" width="100" height="40" as="geometry" />
        </mxCell>
        <mxCell id="pK8p_V3v8rioprw5xGJu-3" value="" style="endArrow=none;html=1;rounded=1;exitX=0;exitY=0.5;exitDx=0;exitDy=0;" parent="1" source="pK8p_V3v8rioprw5xGJu-4" edge="1">
          <mxGeometry width="50" height="50" relative="1" as="geometry">
            <mxPoint x="920" y="440" as="sourcePoint" />
            <mxPoint x="630" y="430" as="targetPoint" />
          </mxGeometry>
        </mxCell>
        <mxCell id="pK8p_V3v8rioprw5xGJu-4" value="Nombre" style="ellipse;whiteSpace=wrap;html=1;align=center;" parent="1" vertex="1">
          <mxGeometry x="1000" y="375" width="100" height="40" as="geometry" />
        </mxCell>
        <mxCell id="pK8p_V3v8rioprw5xGJu-5" value="" style="endArrow=none;html=1;rounded=0;entryX=0.345;entryY=1.008;entryDx=0;entryDy=0;entryPerimeter=0;exitX=0.5;exitY=0;exitDx=0;exitDy=0;" parent="1" source="pK8p_V3v8rioprw5xGJu-12" target="-3C66Id-8g3njtLb4C6S-7" edge="1">
          <mxGeometry width="50" height="50" relative="1" as="geometry">
            <mxPoint x="780" y="700" as="sourcePoint" />
            <mxPoint x="568" y="451" as="targetPoint" />
          </mxGeometry>
        </mxCell>
        <mxCell id="pK8p_V3v8rioprw5xGJu-6" value="" style="endArrow=none;html=1;rounded=0;entryX=0.447;entryY=1.026;entryDx=0;entryDy=0;entryPerimeter=0;" parent="1" target="-3C66Id-8g3njtLb4C6S-7" edge="1">
          <mxGeometry width="50" height="50" relative="1" as="geometry">
            <mxPoint x="890" y="730" as="sourcePoint" />
            <mxPoint x="588" y="461" as="targetPoint" />
          </mxGeometry>
        </mxCell>
        <mxCell id="pK8p_V3v8rioprw5xGJu-7" value="" style="endArrow=none;html=1;rounded=0;entryX=0.544;entryY=1.02;entryDx=0;entryDy=0;entryPerimeter=0;" parent="1" target="-3C66Id-8g3njtLb4C6S-7" edge="1">
          <mxGeometry width="50" height="50" relative="1" as="geometry">
            <mxPoint x="990" y="740" as="sourcePoint" />
            <mxPoint x="598" y="471" as="targetPoint" />
          </mxGeometry>
        </mxCell>
        <mxCell id="pK8p_V3v8rioprw5xGJu-8" value="" style="endArrow=none;html=1;rounded=0;exitX=0.25;exitY=1;exitDx=0;exitDy=0;entryX=0.5;entryY=0;entryDx=0;entryDy=0;" parent="1" source="-3C66Id-8g3njtLb4C6S-7" target="F1NleT-dJt74H9rhN13T-13" edge="1">
          <mxGeometry relative="1" as="geometry">
            <mxPoint x="535" y="450" as="sourcePoint" />
            <mxPoint x="535" y="590" as="targetPoint" />
          </mxGeometry>
        </mxCell>
        <mxCell id="pK8p_V3v8rioprw5xGJu-9" value="1,1" style="resizable=0;html=1;whiteSpace=wrap;align=right;verticalAlign=bottom;" parent="pK8p_V3v8rioprw5xGJu-8" connectable="0" vertex="1">
          <mxGeometry x="1" relative="1" as="geometry">
            <mxPoint x="-5" y="-130" as="offset" />
          </mxGeometry>
        </mxCell>
        <mxCell id="pK8p_V3v8rioprw5xGJu-10" value="Especialidad" style="ellipse;whiteSpace=wrap;html=1;align=center;" parent="1" vertex="1">
          <mxGeometry x="960" y="740" width="100" height="40" as="geometry" />
        </mxCell>
        <mxCell id="pK8p_V3v8rioprw5xGJu-11" value="Salario" style="ellipse;whiteSpace=wrap;html=1;align=center;" parent="1" vertex="1">
          <mxGeometry x="840" y="730" width="100" height="40" as="geometry" />
        </mxCell>
        <mxCell id="pK8p_V3v8rioprw5xGJu-12" value="Es_Jefe" style="ellipse;whiteSpace=wrap;html=1;align=center;" parent="1" vertex="1">
          <mxGeometry x="740" y="710" width="100" height="40" as="geometry" />
        </mxCell>
        <mxCell id="pK8p_V3v8rioprw5xGJu-13" value="" style="endArrow=none;html=1;rounded=0;entryX=0.345;entryY=1.008;entryDx=0;entryDy=0;entryPerimeter=0;" parent="1" edge="1">
          <mxGeometry width="50" height="50" relative="1" as="geometry">
            <mxPoint x="680" y="690" as="sourcePoint" />
            <mxPoint x="544" y="450" as="targetPoint" />
          </mxGeometry>
        </mxCell>
        <mxCell id="pK8p_V3v8rioprw5xGJu-14" value="Id_Estacion" style="ellipse;whiteSpace=wrap;html=1;align=center;" parent="1" vertex="1">
          <mxGeometry x="625" y="690" width="100" height="40" as="geometry" />
        </mxCell>
        <mxCell id="pK8p_V3v8rioprw5xGJu-15" value="" style="endArrow=none;html=1;rounded=0;entryX=0.984;entryY=0.623;entryDx=0;entryDy=0;exitX=0;exitY=0.25;exitDx=0;exitDy=0;entryPerimeter=0;" parent="1" source="F1NleT-dJt74H9rhN13T-43" target="pK8p_V3v8rioprw5xGJu-16" edge="1">
          <mxGeometry width="50" height="50" relative="1" as="geometry">
            <mxPoint x="113" y="1362.5" as="sourcePoint" />
            <mxPoint x="113" y="1322.5" as="targetPoint" />
          </mxGeometry>
        </mxCell>
        <mxCell id="pK8p_V3v8rioprw5xGJu-16" value="DNI" style="ellipse;whiteSpace=wrap;html=1;align=center;fontStyle=4;" parent="1" vertex="1">
          <mxGeometry x="-107" y="1313" width="100" height="40" as="geometry" />
        </mxCell>
        <mxCell id="pK8p_V3v8rioprw5xGJu-17" value="Nombre" style="ellipse;whiteSpace=wrap;html=1;align=center;" parent="1" vertex="1">
          <mxGeometry x="-87" y="1250" width="100" height="40" as="geometry" />
        </mxCell>
        <mxCell id="pK8p_V3v8rioprw5xGJu-18" value="" style="endArrow=none;html=1;rounded=0;entryX=0.988;entryY=0.562;entryDx=0;entryDy=0;entryPerimeter=0;exitX=0;exitY=0;exitDx=0;exitDy=0;" parent="1" source="F1NleT-dJt74H9rhN13T-43" target="pK8p_V3v8rioprw5xGJu-17" edge="1">
          <mxGeometry width="50" height="50" relative="1" as="geometry">
            <mxPoint x="103" y="1385.5" as="sourcePoint" />
            <mxPoint x="253" y="1342.5" as="targetPoint" />
          </mxGeometry>
        </mxCell>
        <mxCell id="pK8p_V3v8rioprw5xGJu-19" value="Apellido" style="ellipse;whiteSpace=wrap;html=1;align=center;" parent="1" vertex="1">
          <mxGeometry x="-47" y="1190" width="100" height="40" as="geometry" />
        </mxCell>
        <mxCell id="pK8p_V3v8rioprw5xGJu-20" value="" style="endArrow=none;html=1;rounded=0;exitX=0.393;exitY=-0.013;exitDx=0;exitDy=0;exitPerimeter=0;entryX=0.877;entryY=0.824;entryDx=0;entryDy=0;entryPerimeter=0;" parent="1" source="F1NleT-dJt74H9rhN13T-43" target="pK8p_V3v8rioprw5xGJu-19" edge="1">
          <mxGeometry width="50" height="50" relative="1" as="geometry">
            <mxPoint x="239" y="1295.5" as="sourcePoint" />
            <mxPoint x="53" y="1220" as="targetPoint" />
          </mxGeometry>
        </mxCell>
        <mxCell id="pK8p_V3v8rioprw5xGJu-21" value="Telefono" style="ellipse;whiteSpace=wrap;html=1;align=center;" parent="1" vertex="1">
          <mxGeometry x="63" y="1180" width="100" height="40" as="geometry" />
        </mxCell>
        <mxCell id="pK8p_V3v8rioprw5xGJu-22" value="" style="endArrow=none;html=1;rounded=0;entryX=0.815;entryY=0.896;entryDx=0;entryDy=0;entryPerimeter=0;exitX=0.704;exitY=-0.021;exitDx=0;exitDy=0;exitPerimeter=0;" parent="1" source="F1NleT-dJt74H9rhN13T-43" target="pK8p_V3v8rioprw5xGJu-21" edge="1">
          <mxGeometry width="50" height="50" relative="1" as="geometry">
            <mxPoint x="213" y="1330" as="sourcePoint" />
            <mxPoint x="479" y="1218" as="targetPoint" />
          </mxGeometry>
        </mxCell>
        <mxCell id="pK8p_V3v8rioprw5xGJu-23" value="Correo_electronico" style="ellipse;whiteSpace=wrap;html=1;align=center;" parent="1" vertex="1">
          <mxGeometry x="173" y="1180" width="110" height="40" as="geometry" />
        </mxCell>
        <mxCell id="pK8p_V3v8rioprw5xGJu-24" value="" style="endArrow=none;html=1;rounded=0;entryX=0.5;entryY=1;entryDx=0;entryDy=0;exitX=0.898;exitY=-0.054;exitDx=0;exitDy=0;exitPerimeter=0;" parent="1" source="F1NleT-dJt74H9rhN13T-43" target="pK8p_V3v8rioprw5xGJu-23" edge="1">
          <mxGeometry width="50" height="50" relative="1" as="geometry">
            <mxPoint x="203" y="1350" as="sourcePoint" />
            <mxPoint x="339" y="1058" as="targetPoint" />
          </mxGeometry>
        </mxCell>
        <mxCell id="F1NleT-dJt74H9rhN13T-54" value="" style="verticalLabelPosition=bottom;verticalAlign=top;html=1;shape=mxgraph.basic.arc;startAngle=0.8662212177054287;endAngle=0.1303387665525873;rotation=-180;" parent="1" vertex="1">
          <mxGeometry x="570" y="1435.59" width="70" height="100" as="geometry" />
        </mxCell>
        <mxCell id="pK8p_V3v8rioprw5xGJu-28" value="" style="endArrow=none;html=1;rounded=0;" parent="1" target="pK8p_V3v8rioprw5xGJu-27" edge="1">
          <mxGeometry width="50" height="50" relative="1" as="geometry">
            <mxPoint x="604" y="1630.59" as="sourcePoint" />
            <mxPoint x="604" y="1480.59" as="targetPoint" />
          </mxGeometry>
        </mxCell>
        <mxCell id="pK8p_V3v8rioprw5xGJu-27" value="" style="shape=waypoint;sketch=0;fillStyle=solid;size=6;pointerEvents=1;points=[];fillColor=none;resizable=0;rotatable=0;perimeter=centerPerimeter;snapToPoint=1;" parent="1" vertex="1">
          <mxGeometry x="594" y="1475.59" width="20" height="20" as="geometry" />
        </mxCell>
        <mxCell id="pK8p_V3v8rioprw5xGJu-30" value="" style="endArrow=none;html=1;rounded=0;exitX=1;exitY=0.5;exitDx=0;exitDy=0;" parent="1" source="F1NleT-dJt74H9rhN13T-47" target="pK8p_V3v8rioprw5xGJu-29" edge="1">
          <mxGeometry width="50" height="50" relative="1" as="geometry">
            <mxPoint x="655" y="1400.59" as="sourcePoint" />
            <mxPoint x="760" y="1400.59" as="targetPoint" />
          </mxGeometry>
        </mxCell>
        <mxCell id="pK8p_V3v8rioprw5xGJu-29" value="" style="shape=waypoint;sketch=0;fillStyle=solid;size=6;pointerEvents=1;points=[];fillColor=none;resizable=0;rotatable=0;perimeter=centerPerimeter;snapToPoint=1;" parent="1" vertex="1">
          <mxGeometry x="646.5" y="1390.59" width="20" height="20" as="geometry" />
        </mxCell>
        <mxCell id="pK8p_V3v8rioprw5xGJu-31" value="" style="endArrow=none;html=1;rounded=0;entryX=0.984;entryY=0.401;entryDx=0;entryDy=0;entryPerimeter=0;exitX=0;exitY=1;exitDx=0;exitDy=0;" parent="1" target="pK8p_V3v8rioprw5xGJu-32" edge="1">
          <mxGeometry width="50" height="50" relative="1" as="geometry">
            <mxPoint x="520" y="1420.59" as="sourcePoint" />
            <mxPoint x="520" y="1343.09" as="targetPoint" />
          </mxGeometry>
        </mxCell>
        <mxCell id="pK8p_V3v8rioprw5xGJu-32" value="Matricula" style="ellipse;whiteSpace=wrap;html=1;align=center;fontStyle=4;" parent="1" vertex="1">
          <mxGeometry x="180" y="1448.09" width="100" height="40" as="geometry" />
        </mxCell>
        <mxCell id="pK8p_V3v8rioprw5xGJu-33" value="Modelo" style="ellipse;whiteSpace=wrap;html=1;align=center;" parent="1" vertex="1">
          <mxGeometry x="98" y="1570.59" width="100" height="40" as="geometry" />
        </mxCell>
        <mxCell id="pK8p_V3v8rioprw5xGJu-34" value="" style="endArrow=none;html=1;rounded=0;entryX=0.959;entryY=0.278;entryDx=0;entryDy=0;entryPerimeter=0;exitX=0.003;exitY=0.893;exitDx=0;exitDy=0;exitPerimeter=0;" parent="1" source="F1NleT-dJt74H9rhN13T-30" target="pK8p_V3v8rioprw5xGJu-33" edge="1">
          <mxGeometry width="50" height="50" relative="1" as="geometry">
            <mxPoint x="390" y="1600.59" as="sourcePoint" />
            <mxPoint x="530" y="1553.09" as="targetPoint" />
          </mxGeometry>
        </mxCell>
        <mxCell id="pK8p_V3v8rioprw5xGJu-35" value="Marca" style="ellipse;whiteSpace=wrap;html=1;align=center;" parent="1" vertex="1">
          <mxGeometry x="120" y="1510.59" width="100" height="40" as="geometry" />
        </mxCell>
        <mxCell id="pK8p_V3v8rioprw5xGJu-36" value="" style="endArrow=none;html=1;rounded=0;entryX=1;entryY=0.5;entryDx=0;entryDy=0;exitX=0.002;exitY=0.789;exitDx=0;exitDy=0;exitPerimeter=0;" parent="1" source="F1NleT-dJt74H9rhN13T-30" target="pK8p_V3v8rioprw5xGJu-35" edge="1">
          <mxGeometry width="50" height="50" relative="1" as="geometry">
            <mxPoint x="390" y="1570.59" as="sourcePoint" />
            <mxPoint x="656" y="1458.59" as="targetPoint" />
          </mxGeometry>
        </mxCell>
        <mxCell id="pK8p_V3v8rioprw5xGJu-37" value="" style="endArrow=none;html=1;rounded=0;exitX=0.25;exitY=1;exitDx=0;exitDy=0;entryX=0.704;entryY=0.036;entryDx=0;entryDy=0;entryPerimeter=0;" parent="1" source="F1NleT-dJt74H9rhN13T-30" target="pK8p_V3v8rioprw5xGJu-43" edge="1">
          <mxGeometry width="50" height="50" relative="1" as="geometry">
            <mxPoint x="333.5" y="1730.59" as="sourcePoint" />
            <mxPoint x="227" y="1759.59" as="targetPoint" />
          </mxGeometry>
        </mxCell>
        <mxCell id="pK8p_V3v8rioprw5xGJu-39" value="Fecha_ultima_revision" style="ellipse;whiteSpace=wrap;html=1;align=center;" parent="1" vertex="1">
          <mxGeometry x="76" y="1705.59" width="144" height="40" as="geometry" />
        </mxCell>
        <mxCell id="pK8p_V3v8rioprw5xGJu-40" value="" style="endArrow=none;html=1;rounded=0;entryX=1;entryY=0;entryDx=0;entryDy=0;exitX=0.079;exitY=1.002;exitDx=0;exitDy=0;exitPerimeter=0;" parent="1" source="F1NleT-dJt74H9rhN13T-30" target="pK8p_V3v8rioprw5xGJu-39" edge="1">
          <mxGeometry width="50" height="50" relative="1" as="geometry">
            <mxPoint x="333.5" y="1720.59" as="sourcePoint" />
            <mxPoint x="473.5" y="1673.09" as="targetPoint" />
          </mxGeometry>
        </mxCell>
        <mxCell id="pK8p_V3v8rioprw5xGJu-41" value="Fecha_matriculacion" style="ellipse;whiteSpace=wrap;html=1;align=center;" parent="1" vertex="1">
          <mxGeometry x="50" y="1640.59" width="140" height="40" as="geometry" />
        </mxCell>
        <mxCell id="pK8p_V3v8rioprw5xGJu-42" value="" style="endArrow=none;html=1;rounded=0;entryX=0.941;entryY=0.258;entryDx=0;entryDy=0;entryPerimeter=0;exitX=0.03;exitY=0.971;exitDx=0;exitDy=0;exitPerimeter=0;" parent="1" source="F1NleT-dJt74H9rhN13T-30" target="pK8p_V3v8rioprw5xGJu-41" edge="1">
          <mxGeometry width="50" height="50" relative="1" as="geometry">
            <mxPoint x="333.5" y="1690.59" as="sourcePoint" />
            <mxPoint x="599.5" y="1578.59" as="targetPoint" />
          </mxGeometry>
        </mxCell>
        <mxCell id="pK8p_V3v8rioprw5xGJu-43" value="Tipo_motor" style="ellipse;whiteSpace=wrap;html=1;align=center;" parent="1" vertex="1">
          <mxGeometry x="153" y="1760.59" width="100" height="40" as="geometry" />
        </mxCell>
        <mxCell id="pK8p_V3v8rioprw5xGJu-44" value="Tipo_vehiculo" style="ellipse;whiteSpace=wrap;html=1;align=center;" parent="1" vertex="1">
          <mxGeometry x="253" y="1790.59" width="100" height="40" as="geometry" />
        </mxCell>
        <mxCell id="pK8p_V3v8rioprw5xGJu-45" value="DNI_propietario" style="ellipse;whiteSpace=wrap;html=1;align=center;" parent="1" vertex="1">
          <mxGeometry x="350" y="1745.59" width="100" height="40" as="geometry" />
        </mxCell>
        <mxCell id="pK8p_V3v8rioprw5xGJu-46" value="" style="endArrow=none;html=1;rounded=0;exitX=0.351;exitY=1.009;exitDx=0;exitDy=0;exitPerimeter=0;entryX=0.5;entryY=0;entryDx=0;entryDy=0;" parent="1" source="F1NleT-dJt74H9rhN13T-30" target="pK8p_V3v8rioprw5xGJu-44" edge="1">
          <mxGeometry width="50" height="50" relative="1" as="geometry">
            <mxPoint x="550" y="1470.59" as="sourcePoint" />
            <mxPoint x="300" y="1780.59" as="targetPoint" />
          </mxGeometry>
        </mxCell>
        <mxCell id="pK8p_V3v8rioprw5xGJu-47" value="" style="endArrow=none;html=1;rounded=0;exitX=0.5;exitY=1;exitDx=0;exitDy=0;" parent="1" source="F1NleT-dJt74H9rhN13T-30" target="pK8p_V3v8rioprw5xGJu-45" edge="1">
          <mxGeometry width="50" height="50" relative="1" as="geometry">
            <mxPoint x="568" y="1470.59" as="sourcePoint" />
            <mxPoint x="420" y="1650.59" as="targetPoint" />
          </mxGeometry>
        </mxCell>
        <mxCell id="pK8p_V3v8rioprw5xGJu-48" value="" style="endArrow=none;html=1;rounded=0;entryX=0.984;entryY=0.623;entryDx=0;entryDy=0;exitX=0;exitY=0.25;exitDx=0;exitDy=0;entryPerimeter=0;" parent="1" target="pK8p_V3v8rioprw5xGJu-49" edge="1">
          <mxGeometry width="50" height="50" relative="1" as="geometry">
            <mxPoint x="514" y="870.0000000000001" as="sourcePoint" />
            <mxPoint x="514" y="822.09" as="targetPoint" />
          </mxGeometry>
        </mxCell>
        <mxCell id="pK8p_V3v8rioprw5xGJu-49" value="Id_Matricula" style="ellipse;whiteSpace=wrap;html=1;align=center;fontStyle=4;" parent="1" vertex="1">
          <mxGeometry x="180" y="580" width="100" height="40" as="geometry" />
        </mxCell>
        <mxCell id="pK8p_V3v8rioprw5xGJu-52" value="Fecha_cita" style="ellipse;whiteSpace=wrap;html=1;align=center;" parent="1" vertex="1">
          <mxGeometry x="333.5" y="1030" width="100" height="40" as="geometry" />
        </mxCell>
        <mxCell id="pK8p_V3v8rioprw5xGJu-53" value="" style="endArrow=none;html=1;rounded=0;entryX=0.738;entryY=0.017;entryDx=0;entryDy=0;entryPerimeter=0;exitX=0.25;exitY=1;exitDx=0;exitDy=0;" parent="1" source="F1NleT-dJt74H9rhN13T-16" target="pK8p_V3v8rioprw5xGJu-52" edge="1">
          <mxGeometry width="50" height="50" relative="1" as="geometry">
            <mxPoint x="520" y="920" as="sourcePoint" />
            <mxPoint x="120" y="810" as="targetPoint" />
          </mxGeometry>
        </mxCell>
        <mxCell id="pK8p_V3v8rioprw5xGJu-54" value="Hora" style="ellipse;whiteSpace=wrap;html=1;align=center;" parent="1" vertex="1">
          <mxGeometry x="170" y="1020" width="100" height="40" as="geometry" />
        </mxCell>
        <mxCell id="pK8p_V3v8rioprw5xGJu-55" value="" style="endArrow=none;html=1;rounded=0;entryX=0.994;entryY=0.43;entryDx=0;entryDy=0;entryPerimeter=0;exitX=0;exitY=1;exitDx=0;exitDy=0;" parent="1" source="F1NleT-dJt74H9rhN13T-16" target="pK8p_V3v8rioprw5xGJu-54" edge="1">
          <mxGeometry width="50" height="50" relative="1" as="geometry">
            <mxPoint x="-20" y="863" as="sourcePoint" />
            <mxPoint x="130" y="820" as="targetPoint" />
          </mxGeometry>
        </mxCell>
        <mxCell id="pK8p_V3v8rioprw5xGJu-56" value="Matricula" style="ellipse;whiteSpace=wrap;html=1;align=center;" parent="1" vertex="1">
          <mxGeometry x="70" y="980" width="100" height="40" as="geometry" />
        </mxCell>
        <mxCell id="pK8p_V3v8rioprw5xGJu-57" value="" style="endArrow=none;html=1;rounded=0;entryX=0.994;entryY=0.43;entryDx=0;entryDy=0;entryPerimeter=0;exitX=0.003;exitY=0.81;exitDx=0;exitDy=0;exitPerimeter=0;" parent="1" source="F1NleT-dJt74H9rhN13T-16" target="pK8p_V3v8rioprw5xGJu-56" edge="1">
          <mxGeometry width="50" height="50" relative="1" as="geometry">
            <mxPoint x="490" y="920" as="sourcePoint" />
            <mxPoint x="140" y="830" as="targetPoint" />
          </mxGeometry>
        </mxCell>
        <mxCell id="pK8p_V3v8rioprw5xGJu-58" value="Id_Trabajador" style="ellipse;whiteSpace=wrap;html=1;align=center;" parent="1" vertex="1">
          <mxGeometry x="70" y="920" width="100" height="40" as="geometry" />
        </mxCell>
        <mxCell id="pK8p_V3v8rioprw5xGJu-59" value="" style="endArrow=none;html=1;rounded=0;entryX=0.994;entryY=0.43;entryDx=0;entryDy=0;entryPerimeter=0;exitX=-0.009;exitY=0.662;exitDx=0;exitDy=0;exitPerimeter=0;" parent="1" source="F1NleT-dJt74H9rhN13T-16" target="pK8p_V3v8rioprw5xGJu-58" edge="1">
          <mxGeometry width="50" height="50" relative="1" as="geometry">
            <mxPoint y="883" as="sourcePoint" />
            <mxPoint x="150" y="840" as="targetPoint" />
          </mxGeometry>
        </mxCell>
        <mxCell id="pK8p_V3v8rioprw5xGJu-60" value="Luces" style="ellipse;whiteSpace=wrap;html=1;align=center;" parent="1" vertex="1">
          <mxGeometry x="70" y="860" width="100" height="40" as="geometry" />
        </mxCell>
        <mxCell id="pK8p_V3v8rioprw5xGJu-61" value="" style="endArrow=none;html=1;rounded=0;entryX=0.994;entryY=0.43;entryDx=0;entryDy=0;entryPerimeter=0;exitX=-0.004;exitY=0.534;exitDx=0;exitDy=0;exitPerimeter=0;" parent="1" source="F1NleT-dJt74H9rhN13T-16" target="pK8p_V3v8rioprw5xGJu-60" edge="1">
          <mxGeometry width="50" height="50" relative="1" as="geometry">
            <mxPoint x="10" y="893" as="sourcePoint" />
            <mxPoint x="160" y="850" as="targetPoint" />
          </mxGeometry>
        </mxCell>
        <mxCell id="pK8p_V3v8rioprw5xGJu-62" value="Interior" style="ellipse;whiteSpace=wrap;html=1;align=center;" parent="1" vertex="1">
          <mxGeometry x="70" y="800" width="100" height="40" as="geometry" />
        </mxCell>
        <mxCell id="pK8p_V3v8rioprw5xGJu-63" value="" style="endArrow=none;html=1;rounded=0;entryX=0.994;entryY=0.43;entryDx=0;entryDy=0;entryPerimeter=0;exitX=-0.009;exitY=0.379;exitDx=0;exitDy=0;exitPerimeter=0;" parent="1" source="F1NleT-dJt74H9rhN13T-16" target="pK8p_V3v8rioprw5xGJu-62" edge="1">
          <mxGeometry width="50" height="50" relative="1" as="geometry">
            <mxPoint x="220" y="773" as="sourcePoint" />
            <mxPoint x="370" y="730" as="targetPoint" />
          </mxGeometry>
        </mxCell>
        <mxCell id="pK8p_V3v8rioprw5xGJu-64" value="Contaminacion" style="ellipse;whiteSpace=wrap;html=1;align=center;" parent="1" vertex="1">
          <mxGeometry x="90" y="750" width="100" height="40" as="geometry" />
        </mxCell>
        <mxCell id="pK8p_V3v8rioprw5xGJu-65" value="" style="endArrow=none;html=1;rounded=0;entryX=0.994;entryY=0.43;entryDx=0;entryDy=0;entryPerimeter=0;exitX=0.003;exitY=0.22;exitDx=0;exitDy=0;exitPerimeter=0;" parent="1" source="F1NleT-dJt74H9rhN13T-16" target="pK8p_V3v8rioprw5xGJu-64" edge="1">
          <mxGeometry width="50" height="50" relative="1" as="geometry">
            <mxPoint x="230" y="783" as="sourcePoint" />
            <mxPoint x="380" y="740" as="targetPoint" />
          </mxGeometry>
        </mxCell>
        <mxCell id="pK8p_V3v8rioprw5xGJu-66" value="Frenado" style="ellipse;whiteSpace=wrap;html=1;align=center;" parent="1" vertex="1">
          <mxGeometry x="98" y="690" width="100" height="40" as="geometry" />
        </mxCell>
        <mxCell id="pK8p_V3v8rioprw5xGJu-67" value="" style="endArrow=none;html=1;rounded=0;entryX=0.994;entryY=0.43;entryDx=0;entryDy=0;entryPerimeter=0;exitX=0.006;exitY=0.041;exitDx=0;exitDy=0;exitPerimeter=0;" parent="1" source="F1NleT-dJt74H9rhN13T-16" target="pK8p_V3v8rioprw5xGJu-66" edge="1">
          <mxGeometry width="50" height="50" relative="1" as="geometry">
            <mxPoint x="240" y="793" as="sourcePoint" />
            <mxPoint x="390" y="750" as="targetPoint" />
          </mxGeometry>
        </mxCell>
        <mxCell id="pK8p_V3v8rioprw5xGJu-68" value="Favorable" style="ellipse;whiteSpace=wrap;html=1;align=center;" parent="1" vertex="1">
          <mxGeometry x="130" y="630" width="100" height="40" as="geometry" />
        </mxCell>
        <mxCell id="pK8p_V3v8rioprw5xGJu-69" value="" style="endArrow=none;html=1;rounded=0;entryX=0.994;entryY=0.43;entryDx=0;entryDy=0;entryPerimeter=0;exitX=0.074;exitY=-0.01;exitDx=0;exitDy=0;exitPerimeter=0;" parent="1" source="F1NleT-dJt74H9rhN13T-16" target="pK8p_V3v8rioprw5xGJu-68" edge="1">
          <mxGeometry width="50" height="50" relative="1" as="geometry">
            <mxPoint x="445" y="863" as="sourcePoint" />
            <mxPoint x="595" y="820" as="targetPoint" />
          </mxGeometry>
        </mxCell>
      </root>
    </mxGraphModel>
  </diagram>
</mxfile>
